<svg width="1728" height="300" viewBox="0 0 1728 300" fill="none" xmlns="http://www.w3.org/2000/svg">
<rect width="1728" height="300" fill="white"/>
<rect x="100" y="225" width="1528" height="8" fill="black"/>
<path d="M682.44 158.174V115.352H666.447V109.623H704.924V115.352H688.866V158.174H682.44ZM701.183 158.174L719.826 109.623H726.746L746.614 158.174H739.295L733.633 143.47H713.336L708.004 158.174H701.183ZM715.19 138.237H731.646L726.58 124.791C725.034 120.706 723.887 117.35 723.135 114.723C722.519 117.836 721.646 120.927 720.522 123.996L715.19 138.237ZM749.561 142.575L755.622 142.045C755.907 144.474 756.568 146.472 757.608 148.04C758.668 149.585 760.301 150.844 762.508 151.815C764.715 152.765 767.198 153.239 769.959 153.239C772.409 153.239 774.573 152.875 776.449 152.146C778.326 151.418 779.716 150.424 780.62 149.166C781.547 147.885 782.01 146.494 782.01 144.993C782.01 143.47 781.57 142.145 780.688 141.019C779.804 139.87 778.348 138.91 776.317 138.138C775.014 137.63 772.132 136.846 767.673 135.786C763.214 134.704 760.092 133.688 758.303 132.739C755.983 131.525 754.251 130.024 753.104 128.235C751.977 126.425 751.414 124.404 751.414 122.174C751.414 119.724 752.109 117.439 753.502 115.319C754.893 113.177 756.921 111.555 759.595 110.451C762.265 109.347 765.235 108.795 768.501 108.795C772.101 108.795 775.268 109.38 778.004 110.55C780.764 111.698 782.883 113.398 784.361 115.65C785.842 117.902 786.636 120.452 786.746 123.3L780.586 123.764C780.256 120.695 779.131 118.377 777.21 116.809C775.311 115.242 772.496 114.458 768.767 114.458C764.881 114.458 762.044 115.175 760.256 116.611C758.49 118.024 757.608 119.735 757.608 121.744C757.608 123.488 758.235 124.923 759.496 126.049C760.73 127.175 763.954 128.334 769.165 129.527C774.395 130.697 777.984 131.723 779.925 132.607C782.751 133.909 784.836 135.565 786.184 137.574C787.532 139.562 788.204 141.858 788.204 144.463C788.204 147.046 787.464 149.486 785.986 151.782C784.505 154.056 782.375 155.834 779.594 157.114C776.834 158.373 773.723 159.002 770.256 159.002C765.865 159.002 762.177 158.362 759.196 157.081C756.238 155.801 753.909 153.88 752.211 151.318C750.533 148.735 749.648 145.821 749.561 142.575ZM809.329 158.174V115.352H793.336V109.623H831.812V115.352H815.754V158.174H809.329ZM838.568 158.174V109.623H873.668V115.352H844.991V130.222H871.846V135.919H844.991V152.445H874.793V158.174H838.568ZM883.767 158.174V109.623H905.29C909.619 109.623 912.908 110.064 915.157 110.947C917.409 111.808 919.209 113.343 920.557 115.551C921.902 117.759 922.575 120.198 922.575 122.87C922.575 126.314 921.461 129.218 919.232 131.58C917.002 133.942 913.558 135.444 908.901 136.084C910.6 136.901 911.891 137.707 912.775 138.502C914.652 140.224 916.429 142.377 918.104 144.96L926.55 158.174H918.469L912.046 148.073C910.17 145.158 908.624 142.929 907.409 141.383C906.197 139.837 905.104 138.756 904.132 138.138C903.182 137.519 902.21 137.089 901.218 136.846C900.489 136.691 899.297 136.614 897.641 136.614H890.193V158.174H883.767ZM890.193 131.05H903.999C906.935 131.05 909.232 130.752 910.888 130.156C912.544 129.538 913.801 128.566 914.663 127.242C915.522 125.895 915.954 124.438 915.954 122.87C915.954 120.574 915.115 118.686 913.437 117.207C911.781 115.727 909.153 114.988 905.556 114.988H890.193V131.05ZM927.344 158.174L945.988 109.623H952.908L972.775 158.174H965.457L959.794 143.47H939.497L934.165 158.174H927.344ZM941.351 138.237H957.808L952.741 124.791C951.196 120.706 950.048 117.35 949.3 114.723C948.681 117.836 947.808 120.927 946.683 123.996L941.351 138.237ZM977.644 158.174V109.623H984.066V133.699L1008.17 109.623H1016.88L996.516 129.295L1017.78 158.174H1009.3L992.015 133.6L984.066 141.35V158.174H977.644ZM1023.27 158.174V109.623H1058.37V115.352H1029.7V130.222H1056.55V135.919H1029.7V152.445H1059.5V158.174H1023.27Z" fill="black"/>
<path d="M705.764 96H666.205V104.478H705.764V96Z" fill="black"/>
</svg>
